<svg xmlns="http://www.w3.org/2000/svg" xmlns:xlink="http://www.w3.org/1999/xlink" width="39" height="39" viewBox="0 0 39 39">
  <defs>
    <linearGradient id="linear-gradient" x1="0.5" x2="0.5" y2="1" gradientUnits="objectBoundingBox">
      <stop offset="0" stop-color="#b56efd"/>
      <stop offset="0.256" stop-color="#a67afd"/>
      <stop offset="0.746" stop-color="#7f9bfe"/>
      <stop offset="0.984" stop-color="#6aaeff"/>
    </linearGradient>
  </defs>
  <g id="Icon" transform="translate(-40 -370.333)">
    <circle id="Ellipse_3395" data-name="Ellipse 3395" cx="19.5" cy="19.5" r="19.5" transform="translate(40 370.333)" fill="url(#linear-gradient)"/>
    <path id="Union_52" data-name="Union 52" d="M-4626.909-3210.788a.75.75,0,0,1-.341-.63v-2.25h-10.5a2.25,2.25,0,0,1-2.251-2.25v-12a2.25,2.25,0,0,1,2.251-2.25h1.5v-.75a.75.75,0,0,1,.75-.75.751.751,0,0,1,.75.75v.75h7.5v-.75a.75.75,0,0,1,.75-.75.75.75,0,0,1,.75.75v.75h1.5a2.25,2.25,0,0,1,2.25,2.25v10.5l2.748,2.44a.75.75,0,0,1,.244.675.75.75,0,0,1-.437.571l-6.75,3a.762.762,0,0,1-.306.064A.754.754,0,0,1-4626.909-3210.788Zm1.159-1.784,4.632-2.058-4.632-4.118Zm-12.75-3.346a.75.75,0,0,0,.751.75h10.5v-5.25a.75.75,0,0,1,.442-.684.75.75,0,0,1,.806.124l2.5,2.223v-5.412h-15Zm0-12v2.251h15v-2.251a.75.75,0,0,0-.75-.75h-1.5v.75a.75.75,0,0,1-.75.75.75.75,0,0,1-.75-.75v-.75h-7.5v.75a.751.751,0,0,1-.75.75.75.75,0,0,1-.75-.75v-.75h-1.5A.751.751,0,0,0-4638.5-3227.917Zm7.5,10.5a.75.75,0,0,1-.75-.75.749.749,0,0,1,.75-.75h.75a.749.749,0,0,1,.75.75.75.75,0,0,1-.75.75Zm-4.5,0a.75.75,0,0,1-.75-.75.749.749,0,0,1,.75-.75h.75a.75.75,0,0,1,.75.75.75.75,0,0,1-.75.75Zm4.5-3a.75.75,0,0,1-.75-.75.749.749,0,0,1,.75-.75h.75a.749.749,0,0,1,.75.75.75.75,0,0,1-.75.75Zm-4.5,0a.75.75,0,0,1-.75-.75.749.749,0,0,1,.75-.75h.75a.75.75,0,0,1,.75.75.751.751,0,0,1-.75.75Z" transform="translate(4689.5 3611)" fill="#fff"/>
  </g>
</svg>
