<svg xmlns="http://www.w3.org/2000/svg" xmlns:xlink="http://www.w3.org/1999/xlink" width="50.523" height="51.108" viewBox="0 0 50.523 51.108">
  <defs>
    <linearGradient id="linear-gradient" x1="-0.146" y1="1.043" x2="1.204" y2="-0.151" gradientUnits="objectBoundingBox">
      <stop offset="0" stop-color="#b56efd"/>
      <stop offset="0.256" stop-color="#a67afd"/>
      <stop offset="0.746" stop-color="#7f9bfe"/>
      <stop offset="0.984" stop-color="#fff"/>
      <stop offset="1" stop-color="#6aaeff"/>
    </linearGradient>
  </defs>
  <g id="Feather" transform="translate(31.285 51.522) rotate(-150)">
    <path id="Path_16666" data-name="Path 16666" d="M6.741,16.752a6.9,6.9,0,0,1-.959-3.517A6.759,6.759,0,0,1,19.115,11.6l.2-.083c.015-.195.012-.392.009-.587A11.2,11.2,0,0,0,10.136.105C4.152-.837-2.194,4.7.739,10.885A13.4,13.4,0,0,0,6.741,16.752Z" transform="translate(2.174 7.476)" fill="url(#linear-gradient)"/>
    <path id="Path_16667" data-name="Path 16667" d="M.916.478A10.006,10.006,0,0,0,0,0C.319.144.615.314.916.478Z" transform="translate(22.934)" fill="url(#linear-gradient)"/>
    <path id="Path_16668" data-name="Path 16668" d="M28.149,5.059a6.037,6.037,0,0,1,.259,2.494,5.253,5.253,0,0,0-2.771,3.936,10.268,10.268,0,0,1,2.752-3.717c-.238,1.942-1.217,3.818-1.858,5.672-1.158,3.348-2.617,6.767-5.31,9.158a11.775,11.775,0,0,1-5.88,2.787,15.325,15.325,0,0,1-4.14.129,11.129,11.129,0,0,1-8-5.343,18,18,0,0,1-1.581-3.184q-.157-.4-.3-.8c-.067-.184-.138-.641-.324-.579-.143.048-.391.59-.439.738A13.364,13.364,0,0,0,.005,20.68a16.877,16.877,0,0,0,1.226,5.7q.156.4.328.783l.021.048A19.494,19.494,0,0,0,4.024,31.26a16.97,16.97,0,0,0,8.466,5.8c3.051.918,7.5,1.443,10.534.229a15.97,15.97,0,0,0-2.13-2.958c1.169,1.574,4.2,1.3,5.9,1.3a22.65,22.65,0,0,0,7.085-6.615s-2.469-1.3-2.791-2.386l3.435.108S40.324,17.619,31.521,7c.486.587.476,2.371.566,3.079a27.776,27.776,0,0,1,0,7.345A17.171,17.171,0,0,1,18.264,32.113,12.952,12.952,0,0,0,21.9,30.335a18.48,18.48,0,0,0,3.6-2.565,18.684,18.684,0,0,0,4.945-7.289C33.191,13.058,30.94,3.856,23.85,0A9.625,9.625,0,0,1,28.149,5.059Z" transform="translate(0 0.478)" fill="url(#linear-gradient)"/>
    <path id="Path_16669" data-name="Path 16669" d="M3.5,2.84A4.5,4.5,0,0,0,0,0,8.737,8.737,0,0,1,3.5,2.84Z" transform="translate(31.509 7.471)" fill="url(#linear-gradient)"/>
  </g>
</svg>
