<svg xmlns="http://www.w3.org/2000/svg" xmlns:xlink="http://www.w3.org/1999/xlink" width="20" height="20" viewBox="0 0 20 20">
  <defs>
    <linearGradient id="linear-gradient" x1="0.5" x2="0.5" y2="1" gradientUnits="objectBoundingBox">
      <stop offset="0" stop-color="#b56efd"/>
      <stop offset="0.256" stop-color="#a67afd"/>
      <stop offset="0.746" stop-color="#7f9bfe"/>
      <stop offset="0.984" stop-color="#6aaeff"/>
    </linearGradient>
  </defs>
  <path id="Union_9" data-name="Union 9" d="M10.586,15.859h3.17C13.006,18,11.869,19.642,10.586,20Zm-4.342,0h3.17V20C8.131,19.642,6.995,18,6.244,15.859Zm8.756,0h3.037a10.24,10.24,0,0,1-4.909,3.722A11.266,11.266,0,0,0,15,15.859Zm-13.037,0H5A11.267,11.267,0,0,0,6.872,19.58,10.231,10.231,0,0,1,1.963,15.859Zm13.364-1.172a19.958,19.958,0,0,0,.517-4.1H20a9.958,9.958,0,0,1-1.216,4.1Zm-4.741,0v-4.1h4.087a18.706,18.706,0,0,1-.557,4.1Zm-4.7,0a18.707,18.707,0,0,1-.557-4.1H9.414v4.1Zm-4.668,0A9.958,9.958,0,0,1,0,10.586H4.156a19.959,19.959,0,0,0,.517,4.1ZM15.845,9.414a20.021,20.021,0,0,0-.517-4.1h3.457A9.957,9.957,0,0,1,20,9.414Zm-5.259,0v-4.1h3.53a18.706,18.706,0,0,1,.557,4.1Zm-5.259,0a18.707,18.707,0,0,1,.557-4.1h3.53v4.1ZM0,9.414a9.958,9.958,0,0,1,1.216-4.1H4.673a19.959,19.959,0,0,0-.517,4.1ZM15,4.141A11.266,11.266,0,0,0,13.128.419a10.24,10.24,0,0,1,4.909,3.722Zm-4.415,0V0c1.283.358,2.42,2,3.17,4.141Zm-4.342,0C6.995,2,8.131.358,9.414,0V4.141Zm-4.281,0A10.231,10.231,0,0,1,6.872.419,11.267,11.267,0,0,0,5,4.141Z" fill="url(#linear-gradient)"/>
</svg>
