<svg xmlns="http://www.w3.org/2000/svg" width="19.369" height="19.369" viewBox="0 0 19.369 19.369">
  <path id="Path_51518" data-name="Path 51518" d="M21.3,16.321a12.313,12.313,0,0,1-3.8-.6,1.052,1.052,0,0,0-1.087.258L14.729,18.1a16.338,16.338,0,0,1-7.414-7.349l2.1-1.786a1.1,1.1,0,0,0,.258-1.1,12,12,0,0,1-.6-3.8A1.075,1.075,0,0,0,8,3H4.28C3.7,3,3,3.258,3,4.065a18.456,18.456,0,0,0,18.3,18.3,1.129,1.129,0,0,0,1.065-1.27V17.387A1.075,1.075,0,0,0,21.3,16.321Z" transform="translate(-3 -3)" fill="#fff"/>
</svg>
