<svg xmlns="http://www.w3.org/2000/svg" xmlns:xlink="http://www.w3.org/1999/xlink" width="21.25" height="21.25" viewBox="0 0 21.25 21.25">
  <defs>
    <linearGradient id="linear-gradient" x1="0.5" x2="0.5" y2="1" gradientUnits="objectBoundingBox">
      <stop offset="0" stop-color="#b56efd"/>
      <stop offset="0.256" stop-color="#a67afd"/>
      <stop offset="0.746" stop-color="#7f9bfe"/>
      <stop offset="0.984" stop-color="#6aaeff"/>
    </linearGradient>
  </defs>
  <g id="Group_57144" data-name="Group 57144" transform="translate(-439 -347)">
    <g id="vote" transform="translate(439 347)">
      <path id="Path_51694" data-name="Path 51694" d="M192.755,95.645c0-.747-.478-1.378-1.045-1.378s-1.045.631-1.045,1.378a1.565,1.565,0,0,0,.423,1.1,3.2,3.2,0,0,1,1.655-.9A1.73,1.73,0,0,0,192.755,95.645Z" transform="translate(-182.753 -90.355)" fill="url(#linear-gradient)"/>
      <path id="Path_51695" data-name="Path 51695" d="M436.885,269.483a3.876,3.876,0,0,1,.775,1.245h.387A1.955,1.955,0,0,0,440,268.814a3.185,3.185,0,0,1-1.955.669Z" transform="translate(-418.753 -257.657)" fill="url(#linear-gradient)"/>
      <path id="Path_51696" data-name="Path 51696" d="M7.424,269.464H1.956A3.184,3.184,0,0,1,0,268.794v.136a1.956,1.956,0,0,0,1.956,1.956H7.424Z" transform="translate(0 -257.638)" fill="url(#linear-gradient)"/>
      <g id="Group_57140" data-name="Group 57140">
        <g id="Group_57142" data-name="Group 57142">
          <g id="Group_57141" data-name="Group 57141">
            <g id="Group_57143" data-name="Group 57143">
              <path id="Path_51697" data-name="Path 51697" d="M19.294,0H1.956A1.956,1.956,0,0,0,0,1.956V8.625a1.956,1.956,0,0,0,1.956,1.956H7.424V8.625a3.183,3.183,0,0,1,.227-1.182A2.748,2.748,0,0,1,6.668,5.29a2.476,2.476,0,0,1,2.29-2.623,2.476,2.476,0,0,1,2.29,2.623c0,.065,0,.129-.007.193a3.2,3.2,0,0,1,1.6.83v-2.4h-.544a.623.623,0,0,1,0-1.245h2.334a.623.623,0,1,1,0,1.245h-.544V7.291a.622.622,0,0,1-.35.559,3.2,3.2,0,0,1,.1.774v1.956h5.467A1.956,1.956,0,0,0,21.25,8.625V1.956A1.956,1.956,0,0,0,19.294,0ZM6.214,3.487l-1.334,4a.623.623,0,0,1-1.181,0l-1.334-4a.623.623,0,1,1,1.181-.394L4.29,5.322l.743-2.229a.623.623,0,1,1,1.181.394ZM17.96,4.668a.623.623,0,0,1,0,1.245h-.711v.755h1.045a.623.623,0,0,1,0,1.245H16.626A.623.623,0,0,1,16,7.291v-4a.623.623,0,0,1,.623-.623h1.667a.623.623,0,1,1,0,1.245H17.249v.755Z" fill="url(#linear-gradient)"/>
            </g>
          </g>
        </g>
      </g>
      <g id="Group_57138" data-name="Group 57138">
        <g id="Group_57139" data-name="Group 57139">
          <path id="Path_51698" data-name="Path 51698" d="M138.309,165.825H135.6v-3.2a1.956,1.956,0,0,0-3.912,0v6.513a2.047,2.047,0,0,0-1.309-.467,2.032,2.032,0,0,0-1.437,3.469l2.342,2.342a2.605,2.605,0,0,0,1.855.768h5.173a2.626,2.626,0,0,0,2.623-2.623v-4.178A2.626,2.626,0,0,0,138.309,165.825Z" transform="translate(-123.016 -153.999)" fill="url(#linear-gradient)"/>
        </g>
      </g>
    </g>
  </g>
</svg>
