<svg xmlns="http://www.w3.org/2000/svg" xmlns:xlink="http://www.w3.org/1999/xlink" width="50.566" height="51.152" viewBox="0 0 50.566 51.152">
  <defs>
    <linearGradient id="linear-gradient" x1="-0.146" y1="1.043" x2="1.204" y2="-0.151" gradientUnits="objectBoundingBox">
      <stop offset="0" stop-color="#b56efd"/>
      <stop offset="0.256" stop-color="#a67afd"/>
      <stop offset="0.746" stop-color="#7f9bfe"/>
      <stop offset="0.984" stop-color="#fff"/>
      <stop offset="1" stop-color="#6aaeff"/>
    </linearGradient>
  </defs>
  <g id="Feather" transform="translate(31.311 51.566) rotate(-150)">
    <path id="Path_16666" data-name="Path 16666" d="M6.747,16.766a6.907,6.907,0,0,1-.96-3.52,6.764,6.764,0,0,1,13.344-1.639l.2-.083c.015-.195.012-.392.009-.587A11.211,11.211,0,0,0,10.144.105C4.156-.837-2.2,4.7.74,10.894A13.41,13.41,0,0,0,6.747,16.766Z" transform="translate(2.176 7.482)" fill="url(#linear-gradient)"/>
    <path id="Path_16667" data-name="Path 16667" d="M.917.478A10,10,0,0,0,0,0C.319.144.615.314.917.478Z" transform="translate(22.953 0)" fill="url(#linear-gradient)"/>
    <g id="Group_57124" data-name="Group 57124">
      <path id="Path_16668" data-name="Path 16668" d="M28.173,5.064a6.041,6.041,0,0,1,.26,2.5A5.257,5.257,0,0,0,25.659,11.5a10.278,10.278,0,0,1,2.754-3.72c-.239,1.944-1.218,3.821-1.86,5.677-1.159,3.351-2.619,6.773-5.315,9.166a11.785,11.785,0,0,1-5.885,2.79,15.338,15.338,0,0,1-4.143.129,11.139,11.139,0,0,1-8-5.347,18.01,18.01,0,0,1-1.583-3.187q-.158-.4-.3-.805c-.067-.184-.138-.641-.324-.579-.143.048-.391.591-.44.738A13.377,13.377,0,0,0,.005,20.7a16.891,16.891,0,0,0,1.227,5.709q.156.4.329.784l.021.048a19.514,19.514,0,0,0,2.445,4.048A16.984,16.984,0,0,0,12.5,37.093c3.054.919,7.5,1.444,10.543.229a15.979,15.979,0,0,0-2.132-2.96c1.17,1.576,4.206,1.3,5.909,1.3a22.67,22.67,0,0,0,7.091-6.621s-2.471-1.3-2.793-2.388l3.438.108s5.8-9.13-3.008-19.76c.486.587.477,2.373.566,3.081a27.8,27.8,0,0,1,0,7.351,17.186,17.186,0,0,1-13.83,14.7,12.964,12.964,0,0,0,3.64-1.779,18.5,18.5,0,0,0,3.6-2.568,18.7,18.7,0,0,0,4.949-7.3c2.749-7.429.5-16.639-6.6-20.5A9.633,9.633,0,0,1,28.173,5.064Z" transform="translate(0 0.478)" fill="url(#linear-gradient)"/>
    </g>
    <path id="Path_16669" data-name="Path 16669" d="M3.508,2.843A4.5,4.5,0,0,0,0,0,8.744,8.744,0,0,1,3.508,2.843Z" transform="translate(31.536 7.477)" fill="url(#linear-gradient)"/>
  </g>
</svg>
