<svg xmlns="http://www.w3.org/2000/svg" width="21" height="20" viewBox="0 0 21 20">
  <g id="Group_187" data-name="Group 187" transform="translate(0 0)">
    <path id="Path_3368" data-name="Path 3368" d="M95.563,688.209v4.032a.657.657,0,0,0,1.185.386l2.374-3.21Z" transform="translate(-87.906 -672.894)" fill="#fff"/>
    <path id="Path_3369" data-name="Path 3369" d="M109.725,675.121a.66.66,0,0,0-.685-.046L89.353,685.291a.651.651,0,0,0,.091,1.2l5.473,1.86,11.656-9.9-9.019,10.8,9.172,3.115a.694.694,0,0,0,.212.035.661.661,0,0,0,.341-.095.651.651,0,0,0,.308-.46l2.407-16.087A.653.653,0,0,0,109.725,675.121Z" transform="translate(-89 -675)" fill="#fff"/>
  </g>
</svg>
