<svg xmlns="http://www.w3.org/2000/svg" width="22.722" height="29.1" viewBox="0 0 22.722 29.1">
  <g id="medal" transform="translate(-56.106)">
    <g id="Group_57088" data-name="Group 57088" transform="translate(56.542 19.544)">
      <path id="Path_51719" data-name="Path 51719" d="M285.561,343.86l3.82,5.4a.5.5,0,0,1-.451.792l-2.847-.227-.737,2.759a.5.5,0,0,1-.9.161l-4.542-6.426Z" transform="translate(-267.624 -343.86)" fill="#e1a546"/>
      <path id="Path_51720" data-name="Path 51720" d="M67.685,343.86l-3.82,5.4a.5.5,0,0,0,.451.792l2.847-.227.737,2.759a.5.5,0,0,0,.9.161l4.542-6.426Z" transform="translate(-63.772 -343.86)" fill="#e1a546"/>
    </g>
    <g id="Group_57089" data-name="Group 57089" transform="translate(59.514 19.544)">
      <path id="Path_51721" data-name="Path 51721" d="M285.56,343.86l-5.653,2.463,1.067,1.509a12.341,12.341,0,0,0,5.518-2.654Z" transform="translate(-270.594 -343.86)" fill="#cd8741"/>
      <path id="Path_51722" data-name="Path 51722" d="M116.059,345.192a12.341,12.341,0,0,0,5.525,2.644l1.07-1.513L117,343.86Z" transform="translate(-116.059 -343.86)" fill="#cd8741"/>
    </g>
    <circle id="Ellipse_3385" data-name="Ellipse 3385" cx="10.912" cy="10.912" r="10.912" transform="translate(56.542 0.455)" fill="#ffc850"/>
    <path id="Path_51723" data-name="Path 51723" d="M81,35.354a10.913,10.913,0,0,1-10.2-14.8A10.913,10.913,0,1,0,84.882,34.64,10.882,10.882,0,0,1,81,35.354Z" transform="translate(-7.229 -19.39)" fill="#eab049"/>
    <circle id="Ellipse_3386" data-name="Ellipse 3386" cx="8.526" cy="8.526" r="8.526" transform="translate(58.928 2.841)" fill="#ffdc64"/>
    <path id="Path_51724" data-name="Path 51724" d="M120.6,85.169a10.912,10.912,0,0,1-10.912-10.913c0-.3.015-.59.038-.881A8.521,8.521,0,1,0,121.482,85.13C121.191,85.153,120.9,85.169,120.6,85.169Z" transform="translate(-46.831 -69.205)" fill="#ffc850"/>
    <path id="Path_51725" data-name="Path 51725" d="M164.855,99.943l-3.546-.515-1.586-3.214a.386.386,0,0,0-.692,0l-1.586,3.214-3.546.515a.386.386,0,0,0-.214.658l2.566,2.5-.606,3.532a.386.386,0,0,0,.559.406l3.172-1.668,3.172,1.668a.386.386,0,0,0,.559-.406L162.5,103.1l2.566-2.5A.386.386,0,0,0,164.855,99.943Z" transform="translate(-91.922 -90.543)" fill="#fff8dc"/>
    <path id="Path_51726" data-name="Path 51726" d="M155.582,161.087l-1.682.244a.386.386,0,0,0-.214.658l2.566,2.5-.606,3.532a.386.386,0,0,0,.559.406l3.172-1.668,3.172,1.668a.386.386,0,0,0,.559-.406l-.078-.456A10.934,10.934,0,0,1,155.582,161.087Z" transform="translate(-91.923 -151.931)" fill="#fff082"/>
    <path id="Path_51727" data-name="Path 51727" d="M148.176,99.184a.813.813,0,0,0,1.179.857l2.98-1.567,2.98,1.567a.813.813,0,0,0,1.179-.857l-.569-3.318,2.411-2.35a.813.813,0,0,0-.45-1.386l-3.554-.516a.426.426,0,1,0-.123.844l3.474.5-2.513,2.45a.426.426,0,0,0-.123.377l.593,3.459-3.107-1.633a.427.427,0,0,0-.4,0l-3.107,1.633.593-3.459a.426.426,0,0,0-.123-.377l-2.513-2.45,3.474-.5a.426.426,0,0,0,.321-.233l1.553-3.148.758,1.535a.426.426,0,0,0,.765-.377l-.793-1.608a.813.813,0,0,0-1.457,0l-1.49,3.019-3.332.484a.813.813,0,0,0-.45,1.386l2.411,2.35Z" transform="translate(-84.868 -83.162)"/>
    <path id="Path_51728" data-name="Path 51728" d="M78.657,24.723l-3.523-4.985a11.361,11.361,0,1,0-15.332,0l-3.523,4.985a.93.93,0,0,0,.834,1.465l2.5-.2.646,2.421a.922.922,0,0,0,.735.676.956.956,0,0,0,.168.015.921.921,0,0,0,.756-.394L66.2,22.65a11.331,11.331,0,0,0,2.544,0l4.28,6.056a.921.921,0,0,0,.756.394.956.956,0,0,0,.168-.015.922.922,0,0,0,.735-.676l.646-2.421,2.5.2a.93.93,0,0,0,.834-1.464ZM61.22,28.214a.078.078,0,0,1-.139-.025l-.738-2.765a.426.426,0,0,0-.446-.315l-2.852.227a.078.078,0,0,1-.07-.123l3.479-4.923a11.393,11.393,0,0,0,1.829,1.176l-1.536,2.174a.426.426,0,1,0,.7.492l1.625-2.3a11.262,11.262,0,0,0,2.187.67Zm-4.26-16.854A10.508,10.508,0,1,1,67.468,21.869,10.52,10.52,0,0,1,56.959,11.361ZM77.964,25.3a.072.072,0,0,1-.074.039l-2.852-.227a.426.426,0,0,0-.446.315l-.738,2.765a.078.078,0,0,1-.139.025L69.681,22.5a11.266,11.266,0,0,0,2.187-.67l1.625,2.3a.426.426,0,0,0,.7-.492l-1.536-2.174a11.393,11.393,0,0,0,1.829-1.176l3.479,4.923A.072.072,0,0,1,77.964,25.3Z"/>
    <path id="Path_51729" data-name="Path 51729" d="M97.057,48.755a8.231,8.231,0,0,1,13.4-5.994.426.426,0,0,0,.537-.662A9.084,9.084,0,0,0,98.214,54.874a.426.426,0,0,0,.662-.537A8.209,8.209,0,0,1,97.057,48.755Z" transform="translate(-37.809 -37.801)"/>
    <path id="Path_51730" data-name="Path 51730" d="M165.66,96.772a.426.426,0,0,0-.662.537A8.231,8.231,0,0,1,159,110.7q-.2.01-.408.01a8.2,8.2,0,0,1-5.173-1.83.426.426,0,0,0-.537.662,9.055,9.055,0,0,0,5.71,2.02c.15,0,.3,0,.45-.011a9.084,9.084,0,0,0,6.614-14.784Z" transform="translate(-91.13 -91.123)"/>
  </g>
</svg>
