<svg xmlns="http://www.w3.org/2000/svg" width="15.751" height="12.82" viewBox="0 0 15.751 12.82">
  <path id="Union_39" data-name="Union 39" d="M-3468.52-1185.179a3.485,3.485,0,0,1-3.48-3.48v-5.861a3.484,3.484,0,0,1,3.48-3.479h8.791a3.484,3.484,0,0,1,3.479,3.455c0,.015,0,.029,0,.044v5.842a3.485,3.485,0,0,1-3.479,3.48Zm0-1.1h8.791a2.383,2.383,0,0,0,2.083-1.231l-4.023-3.449-.667.4a3.462,3.462,0,0,1-1.789.5,3.47,3.47,0,0,1-1.791-.5l-.666-.4-4.023,3.45A2.383,2.383,0,0,0-3468.52-1186.278Zm-2.381-2.422,3.327-2.853-3.327-2Zm13.553,0v-4.849l-3.327,2Zm-8-2.8a2.38,2.38,0,0,0,2.45,0l.969-.581a.544.544,0,0,1,.073-.044l4.49-2.695a2.384,2.384,0,0,0-2.361-2.081h-8.791a2.384,2.384,0,0,0-2.362,2.081l4.413,2.648.022.007a.546.546,0,0,1,.217.136Z" transform="translate(3472 1198)" fill="#b56efd"/>
</svg>
