<svg xmlns="http://www.w3.org/2000/svg" xmlns:xlink="http://www.w3.org/1999/xlink" width="39" height="39" viewBox="0 0 39 39">
  <defs>
    <linearGradient id="linear-gradient" x1="0.5" x2="0.5" y2="1" gradientUnits="objectBoundingBox">
      <stop offset="0" stop-color="#b56efd"/>
      <stop offset="0.256" stop-color="#a67afd"/>
      <stop offset="0.746" stop-color="#7f9bfe"/>
      <stop offset="0.984" stop-color="#6aaeff"/>
    </linearGradient>
  </defs>
  <g id="Icon" transform="translate(-40 -370.333)">
    <circle id="Ellipse_3392" data-name="Ellipse 3392" cx="19.5" cy="19.5" r="19.5" transform="translate(40 370.333)" fill="url(#linear-gradient)"/>
    <path id="Union_49" data-name="Union 49" d="M-4418.827-3250.321l-1.335-1.292a.642.642,0,0,0-.539-.176l-1.841.26a1.95,1.95,0,0,1-.272.019,1.9,1.9,0,0,1-1.873-1.578l-.322-1.832a.64.64,0,0,0-.332-.458l-1.642-.871a1.9,1.9,0,0,1-.82-2.523l.815-1.67a.638.638,0,0,0,0-.568l-.815-1.669a1.9,1.9,0,0,1,.82-2.523l1.642-.871a.642.642,0,0,0,.332-.46l.322-1.83a1.9,1.9,0,0,1,2.146-1.559l1.841.26a.642.642,0,0,0,.539-.176l1.335-1.292a1.9,1.9,0,0,1,2.653,0l1.337,1.292a.642.642,0,0,0,.538.176l1.84-.26a1.9,1.9,0,0,1,2.147,1.559l.32,1.83a.646.646,0,0,0,.333.46l1.643.871a1.9,1.9,0,0,1,.819,2.523l-.816,1.669a.644.644,0,0,0,0,.568l.816,1.67a1.9,1.9,0,0,1-.819,2.523l-1.643.871a.64.64,0,0,0-.332.458l-.321,1.832a1.9,1.9,0,0,1-2.147,1.558l-1.84-.26a.641.641,0,0,0-.538.176l-1.337,1.292a1.9,1.9,0,0,1-1.327.54A1.9,1.9,0,0,1-4418.827-3250.321Zm-.458-2.2,1.336,1.292a.641.641,0,0,0,.9,0l1.335-1.292a1.892,1.892,0,0,1,1.594-.518l1.841.26a.644.644,0,0,0,.727-.527l.321-1.832a1.894,1.894,0,0,1,.984-1.355l1.642-.871a.643.643,0,0,0,.277-.854l-.816-1.669a1.9,1.9,0,0,1,0-1.677l.816-1.669a.643.643,0,0,0-.277-.854l-1.642-.871a1.893,1.893,0,0,1-.984-1.355l-.321-1.832a.644.644,0,0,0-.727-.527l-1.841.26a1.893,1.893,0,0,1-1.594-.518l-1.335-1.292a.644.644,0,0,0-.9,0l-1.336,1.292a1.892,1.892,0,0,1-1.594.518l-1.839-.26a.641.641,0,0,0-.727.527l-.321,1.832a1.9,1.9,0,0,1-.985,1.355l-1.642.871a.643.643,0,0,0-.277.854l.815,1.67a1.892,1.892,0,0,1,0,1.676l-.815,1.669a.643.643,0,0,0,.277.854l1.642.871a1.9,1.9,0,0,1,.985,1.355l.321,1.832a.643.643,0,0,0,.727.527l1.839-.26a1.9,1.9,0,0,1,.272-.02A1.887,1.887,0,0,1-4419.285-3252.52Zm2-4.837a2.317,2.317,0,0,1,2.314-2.314,2.317,2.317,0,0,1,2.313,2.314,2.316,2.316,0,0,1-2.313,2.313A2.316,2.316,0,0,1-4417.289-3257.357Zm1.263,0a1.053,1.053,0,0,0,1.052,1.052,1.054,1.054,0,0,0,1.052-1.052,1.053,1.053,0,0,0-1.052-1.052A1.052,1.052,0,0,0-4416.026-3257.357Zm-6.085,1.245a.629.629,0,0,1,0-.892l8.33-8.331a.631.631,0,0,1,.894,0,.633.633,0,0,1,0,.892l-8.331,8.331a.628.628,0,0,1-.446.186A.63.63,0,0,1-4422.111-3256.113Zm-.229-7.978a2.318,2.318,0,0,1,2.315-2.313,2.317,2.317,0,0,1,2.314,2.313,2.317,2.317,0,0,1-2.314,2.315A2.318,2.318,0,0,1-4422.34-3264.09Zm1.264,0a1.052,1.052,0,0,0,1.052,1.052,1.053,1.053,0,0,0,1.052-1.052,1.054,1.054,0,0,0-1.052-1.052A1.053,1.053,0,0,0-4421.076-3264.09Z" transform="translate(4477.5 3650.5)" fill="#fff" stroke="#fff" stroke-width="0.3"/>
  </g>
</svg>
