<svg xmlns="http://www.w3.org/2000/svg" width="13.536" height="13.524" viewBox="0 0 13.536 13.524">
  <g id="Group_57126" data-name="Group 57126" transform="translate(-1.499 -1.499)">
    <path id="Vector" d="M.937,8.351l3.02,3.02a3.187,3.187,0,0,0,4.5,0l2.927-2.927a3.187,3.187,0,0,0,0-4.5L8.357.931A3.167,3.167,0,0,0,5.957,0L2.623.164A2.576,2.576,0,0,0,.163,2.611L0,5.944A3.2,3.2,0,0,0,.937,8.351Z" transform="translate(2 2)" fill="none" stroke="#30bfff" stroke-linecap="round" stroke-linejoin="round" stroke-width="1"/>
    <path id="Vector-2" data-name="Vector" d="M3.333,1.667A1.667,1.667,0,1,1,1.667,0,1.667,1.667,0,0,1,3.333,1.667Z" transform="translate(4.823 4.818)" fill="none" stroke="#30bfff" stroke-linecap="round" stroke-linejoin="round" stroke-width="1"/>
  </g>
</svg>
