<svg xmlns="http://www.w3.org/2000/svg" xmlns:xlink="http://www.w3.org/1999/xlink" width="39" height="39" viewBox="0 0 39 39">
  <defs>
    <linearGradient id="linear-gradient" x1="0.5" x2="0.5" y2="1" gradientUnits="objectBoundingBox">
      <stop offset="0" stop-color="#b56efd"/>
      <stop offset="0.256" stop-color="#a67afd"/>
      <stop offset="0.746" stop-color="#7f9bfe"/>
      <stop offset="0.984" stop-color="#6aaeff"/>
    </linearGradient>
  </defs>
  <g id="Icon" transform="translate(-40 -370.333)">
    <circle id="Ellipse_3394" data-name="Ellipse 3394" cx="19.5" cy="19.5" r="19.5" transform="translate(40 370.333)" fill="url(#linear-gradient)"/>
    <path id="Union_51" data-name="Union 51" d="M-4600.936-3258.847l-2.455-2.457h-5.347a2.264,2.264,0,0,1-2.263-2.262V-3277.4a2.265,2.265,0,0,1,2.263-2.262h16.475A2.265,2.265,0,0,1-4590-3277.4v13.839a2.265,2.265,0,0,1-2.263,2.262h-5.347l-2.456,2.457a.614.614,0,0,1-.435.18A.617.617,0,0,1-4600.936-3258.847Zm-8.834-18.558v13.839a1.033,1.033,0,0,0,1.032,1.032h5.6a.615.615,0,0,1,.435.18l2.2,2.2,2.2-2.2a.619.619,0,0,1,.436-.18h5.6a1.033,1.033,0,0,0,1.032-1.032V-3277.4a1.033,1.033,0,0,0-1.032-1.032h-16.475A1.033,1.033,0,0,0-4609.77-3277.4Zm5.7,12.031a.616.616,0,0,1-.244-.6l.558-3.258-2.366-2.307a.615.615,0,0,1-.156-.631.615.615,0,0,1,.5-.419l3.271-.476,1.463-2.964a.615.615,0,0,1,.552-.343.614.614,0,0,1,.551.343l1.463,2.964,3.271.476a.614.614,0,0,1,.5.419.616.616,0,0,1-.155.631l-2.367,2.307.553,3.224a.636.636,0,0,1,.015.138.614.614,0,0,1-.613.615h0a.617.617,0,0,1-.287-.07l-2.925-1.538-2.925,1.538a.614.614,0,0,1-.286.071A.622.622,0,0,1-4604.074-3265.374Zm3.86-2.731,2.108,1.108-.4-2.348a.615.615,0,0,1,.177-.545l1.705-1.662-2.356-.343a.612.612,0,0,1-.463-.336l-1.055-2.136-1.055,2.136a.614.614,0,0,1-.463.336l-2.357.343,1.706,1.662a.617.617,0,0,1,.177.545l-.4,2.348,2.108-1.108a.615.615,0,0,1,.286-.071A.617.617,0,0,1-4600.214-3268.1Z" transform="translate(4660 3659)" fill="#fff" stroke="#fff" stroke-width="0.3"/>
  </g>
</svg>
