<svg xmlns="http://www.w3.org/2000/svg" width="22" height="22" viewBox="0 0 22 22">
  <path id="Settings" d="M-9792.687-3303a2.041,2.041,0,0,1-2.031-2.03v-.475a8.469,8.469,0,0,1-1.375-.573l-.327.328a1.987,1.987,0,0,1-2.849,0l-.98-.966a2,2,0,0,1,0-2.865l.327-.327a7.186,7.186,0,0,1-.589-1.375h-.426a2.069,2.069,0,0,1-2.062-2.03v-1.391a2.054,2.054,0,0,1,2.063-2.013h.426a7.147,7.147,0,0,1,.589-1.375l-.327-.344a2,2,0,0,1,0-2.865l.98-.982a2.016,2.016,0,0,1,2.849,0l.327.344a8.448,8.448,0,0,1,1.375-.573v-.475a2.027,2.027,0,0,1,2.031-2.013h1.406a2.027,2.027,0,0,1,2.031,2.013v.475a11.967,11.967,0,0,1,1.375.573l.293-.344a2.057,2.057,0,0,1,2.883,0l.98.982a2.035,2.035,0,0,1,0,2.865l-.327.344a10.051,10.051,0,0,1,.558,1.375h.457A2.027,2.027,0,0,1-9781-3314.7v1.391a2.042,2.042,0,0,1-2.031,2.03h-.457a10.127,10.127,0,0,1-.558,1.375l.327.327a2.035,2.035,0,0,1,0,2.865l-.98.966a2.028,2.028,0,0,1-2.883,0l-.293-.328a12.01,12.01,0,0,1-1.375.573v.475a2.041,2.041,0,0,1-2.031,2.03Zm-3.176-4.436a7.379,7.379,0,0,0,1.964.835.592.592,0,0,1,.459.622v.949a.757.757,0,0,0,.753.736h1.406a.729.729,0,0,0,.721-.736v-.949a.618.618,0,0,1,.491-.622,7.882,7.882,0,0,0,1.964-.835.674.674,0,0,1,.786.114l.688.671a.719.719,0,0,0,1.014,0l.983-.982a.775.775,0,0,0,0-1.031l-.687-.687a.614.614,0,0,1-.064-.77,10.511,10.511,0,0,0,.817-1.98.573.573,0,0,1,.589-.475h.949a.71.71,0,0,0,.721-.737v-1.391a.72.72,0,0,0-.721-.737h-.949a.573.573,0,0,1-.589-.475,9.925,9.925,0,0,0-.817-1.964.635.635,0,0,1,.064-.786l.688-.687a.775.775,0,0,0,0-1.031l-.983-.982a.705.705,0,0,0-1.014,0l-.687.671a.625.625,0,0,1-.786.1,9.256,9.256,0,0,0-1.964-.818.632.632,0,0,1-.491-.622v-.949a.74.74,0,0,0-.721-.736h-1.406a.769.769,0,0,0-.753.736v.949a.6.6,0,0,1-.459.622,8.573,8.573,0,0,0-1.964.818.625.625,0,0,1-.786-.1l-.687-.671a.746.746,0,0,0-1.048,0l-.983.982a.78.78,0,0,0,0,1.031l.688.688a.6.6,0,0,1,.1.786,7.188,7.188,0,0,0-.817,1.964.573.573,0,0,1-.589.475h-.949a.777.777,0,0,0-.786.737v1.391a.766.766,0,0,0,.786.737h.949a.573.573,0,0,1,.589.475,7.515,7.515,0,0,0,.817,1.98.578.578,0,0,1-.1.77l-.687.688a.78.78,0,0,0,0,1.031l.983.982a.746.746,0,0,0,1.048,0l.688-.671a.6.6,0,0,1,.459-.2A.613.613,0,0,1-9795.862-3307.436Zm-.918-6.564a4.8,4.8,0,0,1,4.781-4.8,4.807,4.807,0,0,1,4.813,4.8,4.814,4.814,0,0,1-4.812,4.78A4.807,4.807,0,0,1-9796.78-3314Zm1.278,0a3.524,3.524,0,0,0,3.5,3.487,3.5,3.5,0,0,0,3.5-3.487,3.507,3.507,0,0,0-3.5-3.5A3.528,3.528,0,0,0-9795.5-3314Z" transform="translate(9802.999 3325)"/>
</svg>
