<svg xmlns="http://www.w3.org/2000/svg" xmlns:xlink="http://www.w3.org/1999/xlink" width="39" height="39" viewBox="0 0 39 39">
  <defs>
    <linearGradient id="linear-gradient" x1="0.5" x2="0.5" y2="1" gradientUnits="objectBoundingBox">
      <stop offset="0" stop-color="#b56efd"/>
      <stop offset="0.256" stop-color="#a67afd"/>
      <stop offset="0.746" stop-color="#7f9bfe"/>
      <stop offset="0.984" stop-color="#6aaeff"/>
    </linearGradient>
  </defs>
  <g id="Icon" transform="translate(-40 -370.333)">
    <circle id="Ellipse_3396" data-name="Ellipse 3396" cx="19.5" cy="19.5" r="19.5" transform="translate(40 370.333)" fill="url(#linear-gradient)"/>
    <path id="vote" d="M1.75,12.03v7.656H.656A.656.656,0,1,0,.656,21H15.093a.656.656,0,0,0,0-1.312H14.017V13.961l1-1.015a.736.736,0,0,0,.083-.1l2.665-4.111a1.515,1.515,0,0,0,.707.183h.005a1.52,1.52,0,0,0,1.082-.449l.99-.99a1.532,1.532,0,0,0,0-2.166L15.691.449a1.532,1.532,0,0,0-2.166,0l-.962.962a1.528,1.528,0,0,0-.379,1.514l-3.893.989A5.646,5.646,0,0,0,4.627,6.857,5.71,5.71,0,0,0,4.034,9.37a5.509,5.509,0,0,0,.388,2H2.406A.656.656,0,0,0,1.75,12.03ZM13.49,2.339h0l.962-.963a.214.214,0,0,1,.154-.064.218.218,0,0,1,.155.064l4.861,4.86a.219.219,0,0,1,0,.31l-.99.99a.217.217,0,0,1-.155.065h0a.218.218,0,0,1-.155-.065L13.488,2.647a.218.218,0,0,1,0-.308ZM5.346,9.37A4.386,4.386,0,0,1,5.8,7.441,4.33,4.33,0,0,1,8.614,5.186L13.04,4.06l3.739,3.781-2.743,4.23-3.789,3.842a.888.888,0,0,1-.639.263.875.875,0,0,1-.757-.43.956.956,0,0,1,.2-1.136l3.35-3.359a.656.656,0,0,0,.08-.832l-.142-.207a2.928,2.928,0,0,0-4.916.257l-.521.9H5.862a4.2,4.2,0,0,1-.516-2Zm5.076,2H8.413l.144-.251a1.623,1.623,0,0,1,2.5-.388Zm-7.36,1.312H9.114l-.995,1a2.254,2.254,0,0,0-.4,2.733,2.179,2.179,0,0,0,1.886,1.074,2.205,2.205,0,0,0,1.57-.65L12.7,15.293v4.393H3.062Z" transform="translate(49 379.333)" fill="#fff"/>
  </g>
</svg>
