<svg xmlns="http://www.w3.org/2000/svg" width="19.35" height="23" viewBox="0 0 19.35 23">
  <path id="Union_22" data-name="Union 22" d="M-4948.867-3273a1.1,1.1,0,0,1-1.1-1.1,1.038,1.038,0,0,1,1.1-1.1h16.97a1.138,1.138,0,0,1,1.127,1.1,1.133,1.133,0,0,1-1.219,1.1Zm-.437-4.3a2.412,2.412,0,0,1-.667-2.093l.874-4.185a2.767,2.767,0,0,1,.667-1.219l10.025-10.048a4.153,4.153,0,0,1,5.749,0l.851.9a4.123,4.123,0,0,1,0,5.726l-10.025,10.025a2.66,2.66,0,0,1-1.219.667l-4.139.828a1.633,1.633,0,0,1-.483.069A2.4,2.4,0,0,1-4949.3-3277.3Zm12.44-15.889-10.025,10.048-.828,4.231,4.254-.713,10-10.049a1.784,1.784,0,0,0,0-2.644l-.874-.874a1.741,1.741,0,0,0-1.256-.5A1.8,1.8,0,0,0-4936.864-3293.189Z" transform="translate(4950 3296)" fill="#fff"/>
</svg>
