<svg xmlns="http://www.w3.org/2000/svg" xmlns:xlink="http://www.w3.org/1999/xlink" width="39" height="39" viewBox="0 0 39 39">
  <defs>
    <linearGradient id="linear-gradient" x1="0.5" x2="0.5" y2="1" gradientUnits="objectBoundingBox">
      <stop offset="0" stop-color="#b56efd"/>
      <stop offset="0.256" stop-color="#a67afd"/>
      <stop offset="0.746" stop-color="#7f9bfe"/>
      <stop offset="0.984" stop-color="#6aaeff"/>
    </linearGradient>
  </defs>
  <g id="Group_57129" data-name="Group 57129" transform="translate(-40 -370.333)">
    <circle id="Ellipse_3388" data-name="Ellipse 3388" cx="19.5" cy="19.5" r="19.5" transform="translate(40 370.333)" fill="url(#linear-gradient)"/>
    <path id="Union_47" data-name="Union 47" d="M-5283-3259.213v-1.141a6.8,6.8,0,0,1,6.793-6.794,6.759,6.759,0,0,1,4.133,1.4,5.739,5.739,0,0,1,4.322-1.96,5.758,5.758,0,0,1,5.752,5.752v1.052h-7.434q.021.27.021.545v1.141Zm1.23-1.23h11.126c0-.154-.011-.3-.026-.455a5.5,5.5,0,0,0-.264-1.23,5.535,5.535,0,0,0-.932-1.7,5.614,5.614,0,0,0-.918-.907,5.533,5.533,0,0,0-3.423-1.181A5.571,5.571,0,0,0-5281.77-3260.443Zm10.6-4.466a6.786,6.786,0,0,1,1.521,2.78h6.415a4.528,4.528,0,0,0-4.519-4.344A4.513,4.513,0,0,0-5271.17-3264.909Zm-8.772-6.8a3.857,3.857,0,0,1,3.736-3.959,3.857,3.857,0,0,1,3.736,3.959,3.857,3.857,0,0,1-3.736,3.96A3.857,3.857,0,0,1-5279.942-3271.708Zm1.23,0a2.629,2.629,0,0,0,2.506,2.73,2.628,2.628,0,0,0,2.506-2.73,2.628,2.628,0,0,0-2.506-2.729A2.628,2.628,0,0,0-5278.712-3271.708Zm10.962,3.4a3.1,3.1,0,0,1-2.267-.991,3.481,3.481,0,0,1-.945-2.378,3.311,3.311,0,0,1,3.182-3.423,3.313,3.313,0,0,1,3.238,3.37,3.311,3.311,0,0,1-3.183,3.422Zm-1.981-3.38a2.253,2.253,0,0,0,.607,1.542,1.887,1.887,0,0,0,1.39.608,2.082,2.082,0,0,0,1.962-2.183,2.083,2.083,0,0,0-1.982-2.149h-.015A2.081,2.081,0,0,0-5269.731-3271.691Z" transform="translate(5332.5 3657.5)" fill="#fff" stroke="#fff" stroke-width="0.3"/>
  </g>
</svg>
