<svg xmlns="http://www.w3.org/2000/svg" width="22.73" height="20.443" viewBox="0 0 22.73 20.443">
  <path id="heart" d="M19.086,1.8A5.574,5.574,0,0,0,14.939,0a5.215,5.215,0,0,0-3.257,1.124A6.664,6.664,0,0,0,10.365,2.5,6.66,6.66,0,0,0,9.048,1.124,5.214,5.214,0,0,0,5.791,0,5.575,5.575,0,0,0,1.644,1.8,6.48,6.48,0,0,0,0,6.23a7.716,7.716,0,0,0,2.056,5.051A43.842,43.842,0,0,0,7.2,16.111c.713.608,1.521,1.3,2.361,2.031a1.217,1.217,0,0,0,1.6,0c.839-.734,1.648-1.423,2.362-2.031a43.818,43.818,0,0,0,5.146-4.83A7.715,7.715,0,0,0,20.73,6.23,6.479,6.479,0,0,0,19.086,1.8Zm0,0" transform="translate(1 1)" fill="none" stroke="#fff" stroke-width="2"/>
</svg>
