<svg xmlns="http://www.w3.org/2000/svg" width="15" height="15" viewBox="0 0 15 15">
  <path id="Union_14" data-name="Union 14" d="M-6660.868-1081.023a.32.32,0,0,1-.054-.034.263.263,0,0,1-.044-.027l-.006-.005h0c-.187-.177-3.529-3.386-3.529-6.158a3.71,3.71,0,0,1,3.75-3.75,3.71,3.71,0,0,1,3.75,3.75c0,2.158-2.023,4.578-3.009,5.629a.308.308,0,0,1,.2.262.313.313,0,0,1-.288.335q-.308.023-.649.023A.313.313,0,0,1-6660.868-1081.023Zm-1.758-6.226a1.877,1.877,0,0,0,1.875,1.875,1.878,1.878,0,0,0,1.876-1.875,1.878,1.878,0,0,0-1.876-1.875A1.877,1.877,0,0,0-6662.625-1087.25Zm3.558,5.759a.312.312,0,0,1,.2-.394,3.426,3.426,0,0,0,1.088-.571.313.313,0,0,1,.439.051.314.314,0,0,1-.051.439,4.088,4.088,0,0,1-1.284.676.307.307,0,0,1-.1.015A.313.313,0,0,1-6659.068-1081.491Zm2.2-1.467a.312.312,0,0,1-.1-.43,7.336,7.336,0,0,0,.551-1.171.312.312,0,0,1,.4-.178.312.312,0,0,1,.179.4,7.857,7.857,0,0,1-.6,1.271.313.313,0,0,1-.267.15A.309.309,0,0,1-6656.869-1082.958Zm1.106-2.461a.313.313,0,0,1-.146-.417,2.547,2.547,0,0,1,.974-1.157.311.311,0,0,1,.426.117.311.311,0,0,1-.117.426,1.865,1.865,0,0,0-.719.885.311.311,0,0,1-.281.177A.313.313,0,0,1-6655.762-1085.419Zm1.979-1.507a.312.312,0,0,1,.283-.339c.637-.057.848-.266.95-.418a.314.314,0,0,1,.435-.083.313.313,0,0,1,.083.434,1.772,1.772,0,0,1-1.411.69h-.029A.313.313,0,0,1-6653.784-1086.925Zm1.771-1.574a.313.313,0,0,1-.306-.321c0-.16,0-.335,0-.513-.414-.551-2.187-2.971-2.187-4.166a2.5,2.5,0,0,1,2.5-2.5,2.5,2.5,0,0,1,2.5,2.5c0,1.2-1.776,3.622-2.188,4.169,0,.183,0,.362,0,.527a.313.313,0,0,1-.312.3Zm-.612-5a.626.626,0,0,0,.625.625.626.626,0,0,0,.625-.625.626.626,0,0,0-.625-.625A.626.626,0,0,0-6652.625-1093.5Z" transform="translate(6664.5 1095.999)" fill="#b56efd"/>
</svg>
