<svg id="notification-bing" xmlns="http://www.w3.org/2000/svg" width="23.2" height="23.2" viewBox="0 0 23.2 23.2">
  <path id="Vector" d="M0,0V3.219" transform="translate(11.6 6.225)" fill="none" stroke="#fff" stroke-linecap="round" stroke-width="2"/>
  <path id="Vector-2" data-name="Vector" d="M8.62,0A6.436,6.436,0,0,0,2.182,6.438v2.03a5.019,5.019,0,0,1-.609,2.2L.345,12.721a2.061,2.061,0,0,0,1.16,3.142,22.562,22.562,0,0,0,14.239,0,2.146,2.146,0,0,0,1.16-3.142l-1.228-2.049a5.055,5.055,0,0,1-.609-2.2V6.438A6.475,6.475,0,0,0,8.62,0Z" transform="translate(2.999 1.933)" fill="none" stroke="#fff" stroke-linecap="round" stroke-width="2"/>
  <path id="Vector-3" data-name="Vector" d="M6.438,0A3.23,3.23,0,0,1,3.219,3.219,3.225,3.225,0,0,1,.947,2.272,3.225,3.225,0,0,1,0,0" transform="translate(8.381 18.193)" fill="none" stroke="#fff" stroke-width="2"/>
  <path id="Vector-4" data-name="Vector" d="M0,0H23.2V23.2H0Z" fill="none" opacity="0"/>
</svg>
