<svg xmlns="http://www.w3.org/2000/svg" width="22.512" height="22.511" viewBox="0 0 22.512 22.511">
  <g id="Group_57130" data-name="Group 57130" transform="translate(-261.75 -47.738)">
    <path id="Path_51580" data-name="Path 51580" d="M21.812.19a.645.645,0,0,0-.7-.143L.406,8.331A.645.645,0,0,0,.364,9.51L8.531,13.47l3.961,8.167a.644.644,0,0,0,.58.363h.023a.644.644,0,0,0,.576-.4L21.954.885A.645.645,0,0,0,21.812.19ZM2.239,8.986,18.68,2.41l-9.8,9.8ZM13.015,19.762,9.793,13.119l9.8-9.8Z" transform="translate(262 47.999)" fill="#fff" stroke="#fff" stroke-width="0.5"/>
  </g>
</svg>
