<svg xmlns="http://www.w3.org/2000/svg" width="18.25" height="24.207" viewBox="0 0 18.25 24.207">
  <path id="Union_27" data-name="Union 27" d="M-4898.281-3626a.719.719,0,0,1-.719-.719v-14.375a.719.719,0,0,1,.719-.719h2.156v1.438h-1.437v12.938h14.375v-12.937h-1.437v-1.437h2.156a.718.718,0,0,1,.718.719v14.375a.718.718,0,0,1-.718.719Zm7.188-10.062v-10.186l-3.085,3.086-1.017-1.016,4.821-4.821,4.821,4.821-1.017,1.016-3.085-3.086v10.186Z" transform="translate(4899.5 3649.707)" fill="#fff" stroke="#fff" stroke-width="1"/>
</svg>
